# Blender 4.2.2 LTS
# www.blender.org
mtllib SkyBox.mtl
o Plane.001
v 1000.000183 -999.524475 -1000.475464
v 1000.000061 -1000.475464 999.524475
v 999.999939 1000.475464 -999.524475
v 999.999817 999.524475 1000.475464
vn -1.0000 -0.0000 -0.0000
vt 1.000000 0.000000
vt 0.000000 1.000000
vt 0.000000 0.000000
vt 1.000000 1.000000
s 0
usemtl Material.004
f 2/1/1 3/2/1 1/3/1
f 2/1/1 4/4/1 3/2/1
o Plane.002
v -1000.013550 -999.986572 -1000.000061
v 999.986572 -1000.013550 -1000.000061
v -999.986572 1000.013550 -999.999939
v 1000.013550 999.986572 -999.999939
vn -0.0000 -0.0000 1.0000
vt 1.000000 0.000000
vt 0.000000 1.000000
vt 0.000000 0.000000
vt 1.000000 1.000000
s 0
usemtl Material.005
f 6/5/2 7/6/2 5/7/2
f 6/5/2 8/8/2 7/6/2
o Plane.003
v 999.999939 1000.000061 999.999939
v -1000.000061 999.999939 999.999939
v 1000.000061 -999.999939 1000.000061
v -999.999939 -1000.000061 1000.000061
vn -0.0000 -0.0000 1.0000
vt 1.000000 0.000000
vt 0.000000 1.000000
vt 0.000000 0.000000
vt 1.000000 1.000000
s 0
usemtl Material.002
f 10/9/3 11/10/3 9/11/3
f 10/9/3 12/12/3 11/10/3
o Plane.004
v 1000.000061 1000.000061 -999.999939
v 999.999939 1000.000061 1000.000061
v -999.999939 999.999939 -1000.000061
v -1000.000061 999.999939 999.999939
vn -0.0000 -1.0000 -0.0000
vt 1.000000 0.000000
vt 0.000000 1.000000
vt 0.000000 0.000000
vt 1.000000 1.000000
s 0
usemtl Material.001
f 14/13/4 15/14/4 13/15/4
f 14/13/4 16/16/4 15/14/4
o Plane.005
v -1000.000061 -999.986633 1000.013489
v -1000.000183 -1000.013489 -999.986633
v -999.999817 1000.013489 999.986633
v -999.999939 999.986633 -1000.013489
vn 1.0000 -0.0000 -0.0000
vt 1.000000 0.000000
vt 0.000000 1.000000
vt 0.000000 0.000000
vt 1.000000 1.000000
s 0
usemtl Material.006
f 18/17/5 19/18/5 17/19/5
f 18/17/5 20/20/5 19/18/5
o Plane.006
v -1000.764404 -1000.000244 -999.235229
v -999.235229 -1000.000183 1000.764404
v 999.235229 -999.999817 -1000.764404
v 1000.764404 -999.999756 999.235229
vn -0.0000 1.0000 -0.0000
vt 1.000000 0.000000
vt 0.000000 1.000000
vt 0.000000 0.000000
vt 1.000000 1.000000
s 0
usemtl Material.007
f 22/21/6 23/22/6 21/23/6
f 22/21/6 24/24/6 23/22/6
