# Blender 4.1.1
# www.blender.org
mtllib GrassBlock.mtl
o Grass_Block_Cube
v 0.500000 0.000001 -0.500000
v 0.500000 0.000002 0.500000
v -0.500000 0.000002 0.500000
v -0.500000 0.000001 -0.500000
v 0.500000 1.000001 -0.500000
v 0.499999 1.000002 0.500000
v -0.500000 1.000002 0.500000
v -0.500000 1.000001 -0.500000
vn -0.0000 -1.0000 -0.0000
vn -0.0000 1.0000 -0.0000
vn 1.0000 -0.0000 -0.0000
vn -0.0000 -0.0000 1.0000
vn -1.0000 -0.0000 -0.0000
vn -0.0000 -0.0000 -1.0000
vt 0.666413 0.250594
vt 0.333587 0.250594
vt 0.333587 0.000975
vt 0.666413 0.000975
vt 0.666413 0.500213
vt 0.666413 0.749833
vt 0.333587 0.749833
vt 0.333587 0.500214
vt 0.000761 0.500214
vt 0.000761 0.749833
vt 0.333587 0.999452
vt 0.666413 0.999452
vt 0.999239 0.500213
vt 0.999239 0.749833
s 0
usemtl Grass_Block_TEX.002
f 1/1/1 2/2/1 3/3/1 4/4/1
f 5/5/2 8/6/2 7/7/2 6/8/2
f 1/1/3 5/5/3 6/8/3 2/2/3
f 2/9/4 6/8/4 7/7/4 3/10/4
f 3/11/5 7/7/5 8/6/5 4/12/5
f 5/5/6 1/13/6 4/14/6 8/6/6
