# Blender 4.1.0
# www.blender.org
mtllib skelet ruchka 3.mtl
o Cylinder
v -0.782166 2.772612 8.328104
v -0.483741 2.768257 8.355417
v -0.785556 2.693423 8.352506
v -0.487131 2.689067 8.379819
v -0.792563 2.648577 8.421915
v -0.494138 2.644221 8.449229
v -0.798914 2.660519 8.473826
v -0.499054 2.655969 8.504815
v -0.804158 2.719964 8.559984
v -0.505733 2.715608 8.587297
v -0.803320 2.802793 8.564039
v -0.504895 2.798438 8.591353
v -0.796792 2.870251 8.484095
v -0.496933 2.865701 8.515083
v -0.790151 2.887076 8.433592
v -0.491726 2.882720 8.460906
v -0.783981 2.849092 8.360127
v -0.485556 2.844736 8.387441
v -0.096047 2.683359 8.415613
v -0.092658 2.762548 8.391212
v -0.103054 2.638513 8.485023
v -0.113836 2.650347 8.540052
v -0.114649 2.709899 8.623092
v -0.113811 2.792729 8.627147
v -0.111714 2.860080 8.550321
v -0.100642 2.877012 8.496700
v -0.094472 2.839028 8.423235
v -1.263898 2.779644 8.284013
v -1.267288 2.700454 8.308415
v -1.274295 2.655608 8.377825
v -1.287563 2.667167 8.438980
v -1.237415 2.725073 8.545135
v -1.236577 2.807903 8.549190
v -1.285441 2.876900 8.449248
v -1.271883 2.894107 8.389502
v -1.265713 2.856123 8.316036
v -1.492233 2.681038 8.702168
v -1.490610 2.841522 8.710025
v -1.587177 2.974219 8.536914
v -1.587701 3.008456 8.408351
v -1.549075 2.932800 8.302608
v -1.426783 2.932130 8.291031
v -1.432910 3.007109 8.403890
v -1.459180 2.973769 8.519650
v -1.364505 2.840086 8.713286
v -1.366129 2.679603 8.705429
v -1.463290 2.567410 8.499754
v -1.437583 2.545014 8.381265
v -1.429834 2.630519 8.276264
v -1.417440 2.785334 8.199505
v -1.591287 2.567860 8.517018
v -1.592375 2.546361 8.385727
v -1.552126 2.631189 8.287841
v -1.514614 2.785334 8.219590
vn 0.0827 -0.2967 -0.9514
vn 0.0371 -0.8411 -0.5397
vn -0.0357 -0.9751 0.2189
vn -0.0505 -0.9146 0.4012
vn -0.0441 -0.9180 0.3941
vn -0.0493 -0.8223 0.5670
vn -0.0917 -0.0478 0.9946
vn -0.0633 -0.0482 0.9968
vn -0.0332 0.7638 0.6446
vn -0.0325 0.8719 0.4887
vn -0.0260 0.8758 0.4819
vn -0.0162 0.9496 0.3132
vn -0.0329 -0.9784 0.2039
vn -0.0498 -0.9158 0.3986
vn 0.0546 0.8888 -0.4550
vn 0.0897 0.3865 -0.9179
vn 0.2743 0.6581 -0.7011
vn 0.9944 -0.0208 0.1032
vn 0.9958 -0.0100 0.0910
vn 0.9936 -0.0168 0.1116
vn -0.0134 0.9543 0.2985
vn -0.0317 0.8733 0.4862
vn -0.0134 0.9543 0.2986
vn -0.0492 0.7516 0.6577
vn -0.0650 -0.8111 0.5812
vn -0.0650 -0.8112 0.5811
vn 0.2617 -0.5919 -0.7623
vn 0.3841 -0.3927 -0.8356
vn 0.2820 -0.2935 -0.9134
vn 0.2844 0.8509 -0.4417
vn -0.0071 0.9606 0.2779
vn -0.0172 0.9100 0.4143
vn -0.0281 0.8099 0.5859
vn -0.0348 -0.0485 0.9982
vn -0.0450 -0.8625 0.5040
vn -0.0359 -0.9456 0.3234
vn -0.0268 -0.9828 0.1828
vn 0.5398 -0.8089 0.2330
vn 0.5345 -0.8221 0.1960
vn 0.5396 -0.8096 0.2312
vn 0.5558 0.7712 0.3104
vn 0.5597 0.7538 0.3441
vn 0.5555 0.7721 0.3087
vn 0.5441 -0.7950 0.2683
vn 0.5508 0.7881 0.2748
vn 0.3928 0.4646 -0.7936
vn 0.1756 0.6942 -0.6981
vn 0.2676 -0.8092 -0.5230
vn 0.1622 -0.6261 -0.7627
vn 0.7844 -0.0382 0.6190
vn 0.1863 0.8165 -0.5464
vn -0.0503 0.6991 -0.7133
vn -0.0098 0.8115 -0.5842
vn -0.1484 -0.4106 -0.8997
vn -0.1832 -0.4249 -0.8865
vn 0.0231 -0.9416 0.3359
vn 0.0011 -0.8719 0.4896
vn 0.0401 -0.9459 0.3221
vn 0.0418 0.9036 0.4262
vn 0.0277 0.9630 0.2681
vn 0.0589 0.9089 0.4129
vn 0.0080 -0.9849 0.1727
vn -0.0032 -0.9827 0.1850
vn 0.0183 0.8197 0.5725
vn -0.0054 0.8217 0.5699
vn -0.1392 0.4994 -0.8551
vn 0.1703 -0.7628 -0.6238
vn -0.0637 -0.6249 -0.7781
vn -0.0264 -0.0486 0.9985
vn -0.9924 -0.1184 -0.0326
vn -0.9898 0.1410 -0.0199
vn -0.9591 0.0660 0.2754
vn -0.0329 -0.9784 0.2040
vn 0.2887 0.3756 -0.8807
vn 0.9849 0.0442 0.1676
vn 0.9957 -0.0145 0.0911
vn 0.9931 0.0226 0.1148
vn 0.9142 0.2921 0.2810
vn 0.9998 -0.0110 0.0177
vn -0.0492 0.7517 0.6577
vn -0.0225 -0.8731 0.4869
vn 0.0164 0.9598 0.2802
vn -0.1737 0.5130 -0.8406
vn -0.0256 -0.7502 -0.6607
vn -0.9605 -0.0732 0.2686
vn -0.6580 -0.7284 -0.1913
vn -0.9482 -0.0445 -0.3145
vn -0.9261 0.0278 -0.3762
vn -0.9468 0.0942 -0.3077
vn -0.6429 0.7567 -0.1186
s 1
usemtl Material.002
f 2//1 3//1 1//1
f 4//2 5//2 3//2
f 5//3 8//4 7//5
f 8//4 9//6 7//5
f 10//7 11//8 9//8
f 11//9 14//10 13//11
f 14//10 15//12 13//11
f 6//13 22//14 8//4
f 16//15 17//15 15//15
f 18//16 1//16 17//16
f 1//16 36//17 17//16
f 20//18 24//19 22//20
f 4//2 21//2 6//2
f 18//16 20//16 2//16
f 16//15 27//15 18//15
f 16//21 25//22 26//23
f 12//24 25//22 14//10
f 10//7 24//7 12//7
f 10//25 22//14 23//26
f 2//1 19//1 4//1
f 29//27 50//28 28//29
f 17//15 35//30 15//15
f 13//11 35//31 34//32
f 13//11 33//33 11//9
f 11//8 32//34 9//8
f 7//5 32//35 31//36
f 3//1 28//29 1//1
f 7//5 30//37 5//3
f 5//2 29//27 3//2
f 31//38 46//39 47//40
f 34//41 43//42 44//43
f 31//38 48//44 30//44
f 34//41 45//45 33//45
f 36//17 50//46 42//47
f 30//48 49//49 29//27
f 33//50 46//50 32//50
f 35//30 42//47 43//51
f 43//51 41//52 40//53
f 49//49 54//54 50//55
f 47//56 37//57 51//58
f 44//59 40//60 39//61
f 47//56 52//62 48//63
f 44//59 38//64 45//65
f 42//47 54//66 41//52
f 48//67 53//68 49//49
f 45//69 37//69 46//69
f 40//70 52//71 37//72
f 2//1 4//1 3//1
f 4//2 6//2 5//2
f 5//3 6//13 8//4
f 8//4 10//25 9//6
f 10//7 12//7 11//8
f 11//9 12//24 14//10
f 14//10 16//21 15//12
f 6//13 21//73 22//14
f 16//15 18//15 17//15
f 18//16 2//16 1//16
f 1//16 28//74 36//17
f 21//75 19//76 20//18
f 20//18 27//76 26//77
f 26//77 25//78 24//19
f 24//19 23//79 22//20
f 22//20 21//75 20//18
f 20//18 26//77 24//19
f 4//2 19//2 21//2
f 18//16 27//16 20//16
f 16//15 26//15 27//15
f 16//21 14//10 25//22
f 12//24 24//80 25//22
f 10//7 23//7 24//7
f 10//25 8//4 22//14
f 2//1 20//1 19//1
f 29//27 49//49 50//28
f 17//15 36//17 35//30
f 13//11 15//12 35//31
f 13//11 34//32 33//33
f 11//8 33//34 32//34
f 7//5 9//6 32//35
f 3//1 29//27 28//29
f 7//5 31//36 30//37
f 5//2 30//48 29//27
f 31//38 32//39 46//39
f 34//41 35//42 43//42
f 31//38 47//40 48//44
f 34//41 44//43 45//45
f 36//17 28//74 50//46
f 30//48 48//67 49//49
f 33//50 45//50 46//50
f 35//30 36//17 42//47
f 43//51 42//47 41//52
f 49//49 53//68 54//54
f 47//56 46//81 37//57
f 44//59 43//82 40//60
f 47//56 51//58 52//62
f 44//59 39//61 38//64
f 42//47 50//83 54//66
f 48//67 52//84 53//68
f 45//69 38//69 37//69
f 38//85 39//86 40//70
f 40//70 41//87 54//88
f 54//88 53//89 52//71
f 52//71 51//90 37//72
f 37//72 38//85 40//70
f 40//70 54//88 52//71
o Plane
v 3.473957 2.699378 8.718411
v 2.424973 2.706749 8.621765
v 0.912075 2.731285 8.483494
v 0.809496 2.728988 8.473801
v 0.684234 2.738972 8.462991
v 0.558932 2.748548 8.452145
v 0.410415 2.758462 8.439175
v 0.235923 2.707557 8.418910
v 0.344417 2.739208 8.431509
v 3.451787 2.680166 8.957577
v 2.402802 2.687537 8.860930
v 0.889905 2.712073 8.722659
v 0.787325 2.709776 8.712966
v 0.662064 2.719760 8.702156
v 0.536762 2.729336 8.691310
v 0.388245 2.739250 8.678339
v 0.213753 2.688345 8.658075
v 0.322247 2.719996 8.670675
v 3.521440 2.392874 8.743103
v 3.269279 2.326025 8.714358
v 3.468647 2.396881 8.693620
v 3.719291 2.625164 8.780104
v 3.675880 2.699890 8.737171
v 3.718819 2.765117 8.791302
v 3.519358 3.009423 8.792438
v 3.466566 3.013431 8.742954
v 3.266725 3.082528 8.774891
v 2.414356 2.332032 8.635592
v 2.419663 2.404251 8.596973
v 2.417581 3.020801 8.646308
v 2.411802 3.088535 8.696124
v 1.147253 2.347476 8.519375
v 0.844677 2.374913 8.493530
v 0.872674 2.424235 8.455176
v 1.178791 3.108532 8.583433
v 0.904684 3.045338 8.508036
v 0.881289 3.087746 8.554186
v 0.793761 2.456409 8.495357
v 0.756863 2.488810 8.494539
v 0.787829 2.529237 8.455746
v 0.821299 3.001504 8.541697
v 0.808101 2.933345 8.490087
v 0.782751 2.970486 8.535632
v 0.682126 2.517654 8.489928
v 0.640072 2.517245 8.485997
v 0.667972 2.568397 8.447782
v 0.711469 2.951098 8.527467
v 0.692714 2.910111 8.477524
v 0.670581 2.957734 8.524210
v 0.551489 2.478132 8.474644
v 0.556209 2.531056 8.434422
v 0.581621 2.966199 8.471731
v 0.582670 3.012050 8.520424
v 0.394444 2.378170 8.452057
v 0.400742 2.451420 8.413612
v 0.444232 3.232516 8.525301
v 0.415708 3.188498 8.474209
v 0.395010 3.281718 8.524691
v 0.178671 2.309859 8.426567
v 0.197492 2.316699 8.383949
v 0.193107 2.263422 8.424175
v 0.184488 2.451574 8.438490
v 0.129123 2.522600 8.439063
v 0.198738 2.535743 8.401661
v -0.121368 2.817474 8.439530
v -0.048757 2.888479 8.451965
v -0.046141 2.850090 8.404213
v 0.197789 3.002496 8.483978
v 0.278774 3.080753 8.497772
v 0.267192 2.978116 8.443542
v 0.248083 2.247003 8.427952
v 0.262333 2.331173 8.391123
v 0.288317 2.267339 8.433315
v -0.122090 2.689693 8.429199
v -0.052688 2.665313 8.388762
v -0.065230 2.622758 8.429092
v 0.334399 3.278849 8.518841
v 0.325089 3.181225 8.465225
v 0.308014 3.233231 8.512732
v 3.507473 2.380770 8.893778
v 3.446477 2.377669 8.932785
v 3.255311 2.313921 8.865032
v 3.705324 2.613060 8.930778
v 3.704851 2.753013 8.941977
v 3.653709 2.680678 8.976336
v 3.505391 2.997320 8.943111
v 3.252757 3.070424 8.925566
v 3.444396 2.994219 8.982120
v 2.397493 2.385039 8.836139
v 2.400389 2.319928 8.786266
v 2.397835 3.076431 8.846799
v 2.395411 3.001589 8.885473
v 1.133286 2.335373 8.670049
v 0.850503 2.405023 8.694342
v 0.830709 2.362810 8.644204
v 1.164824 3.096429 8.734107
v 0.867321 3.075643 8.704860
v 0.882514 3.026126 8.747202
v 0.779793 2.444305 8.646031
v 0.765659 2.510025 8.694911
v 0.742895 2.476707 8.645214
v 0.807332 2.989400 8.692371
v 0.768784 2.958382 8.686306
v 0.785931 2.914133 8.729252
v 0.668159 2.505550 8.640602
v 0.645802 2.549185 8.686947
v 0.626104 2.505142 8.636671
v 0.697502 2.938994 8.678141
v 0.656614 2.945630 8.674884
v 0.670544 2.890899 8.716690
v 0.534039 2.511844 8.673587
v 0.537522 2.466028 8.625319
v 0.568703 2.999946 8.671098
v 0.559451 2.946987 8.710897
v 0.378572 2.432208 8.652779
v 0.380478 2.366066 8.602731
v 0.430266 3.220412 8.675975
v 0.381042 3.269614 8.675364
v 0.393538 3.169286 8.713375
v 0.164704 2.297755 8.577241
v 0.179139 2.251319 8.574849
v 0.175321 2.297487 8.623116
v 0.170520 2.439470 8.589165
v 0.176567 2.516531 8.640826
v 0.115156 2.510496 8.589738
v -0.135335 2.805371 8.590205
v -0.068312 2.830878 8.643378
v -0.062724 2.876375 8.602639
v 0.183822 2.990392 8.634653
v 0.245021 2.958904 8.682708
v 0.264807 3.068649 8.648446
v 0.234116 2.234900 8.578627
v 0.274350 2.255236 8.583990
v 0.240163 2.311961 8.630289
v -0.136057 2.677589 8.579873
v -0.079198 2.610655 8.579767
v -0.074859 2.646101 8.627928
v 0.320432 3.266745 8.669516
v 0.294047 3.221127 8.663405
v 0.302919 3.162013 8.704391
vn 0.0920 0.0797 -0.9926
vn -0.0004 0.9968 0.0800
vn 0.0004 -0.9968 -0.0800
vn 0.0088 0.9967 0.0809
vn -0.0048 -0.9967 -0.0805
vn -0.8185 0.5737 -0.0298
vn -0.8431 -0.5241 -0.1203
vn -0.2677 0.9621 0.0525
vn -0.3522 -0.9297 -0.1073
vn 0.5184 0.8472 0.1161
vn 0.4075 -0.9125 -0.0355
vn 0.8419 0.5260 0.1203
vn 0.5387 -0.8423 -0.0177
vn -0.4231 0.9055 0.0335
vn -0.2782 -0.9550 -0.1025
vn 0.7213 -0.6926 0.0112
vn -0.0544 0.9957 0.0749
vn -0.4506 -0.8856 -0.1129
vn -0.9780 0.1949 -0.0750
vn -0.0920 -0.0797 0.9926
vn 0.7691 0.6274 0.1217
vn -0.9949 0.0483 -0.0884
vn -0.9957 0.0130 -0.0913
vn 0.2772 -0.8877 -0.3677
vn 0.7487 0.0554 -0.6606
vn 0.2852 0.9307 -0.2289
vn 0.0111 -0.6178 -0.7863
vn 0.0144 0.7399 -0.6726
vn -0.3901 -0.4643 -0.7952
vn -0.3760 0.6046 -0.7023
vn 0.0787 -0.6239 -0.7776
vn 0.1711 0.7291 -0.6626
vn 0.5037 0.4952 -0.7078
vn -0.8706 -0.2488 -0.4244
vn -0.4044 -0.3083 -0.8610
vn -0.5357 0.6436 -0.5467
vn -0.3147 0.4709 -0.8241
vn 0.3272 -0.4247 -0.8441
vn -0.5616 -0.4760 -0.6768
vn -0.5880 0.4317 -0.6840
vn 0.2184 -0.9386 0.2669
vn 0.6145 -0.0609 0.7865
vn 0.2249 0.8785 0.4215
vn -0.1236 -0.7345 0.6672
vn -0.1195 0.6238 0.7724
vn -0.5219 -0.5785 0.6269
vn -0.5067 0.4912 0.7085
vn -0.0555 -0.7402 0.6701
vn 0.0365 0.6125 0.7897
vn 0.3587 0.3694 0.8572
vn -0.9298 -0.3000 0.2134
vn -0.5503 -0.4347 0.7129
vn -0.6359 0.5567 0.5345
vn -0.4668 0.3391 0.8167
vn 0.1737 -0.5577 0.8116
vn -0.6687 -0.5688 0.4789
vn -0.7093 0.3266 0.6246
vn 0.4426 -0.2394 -0.8642
vn 0.6333 0.4346 -0.6404
vn 0.0779 0.5950 -0.8000
vn 0.0774 -0.4746 -0.8768
vn 0.0827 0.5950 -0.7994
vn 0.0747 -0.4745 -0.8771
vn -0.5471 0.5701 -0.6129
vn -0.5292 -0.3129 -0.7887
vn -0.0918 0.7864 -0.6109
vn -0.1849 -0.6030 -0.7760
vn 0.4301 0.6526 -0.6238
vn 0.3050 -0.6712 -0.6757
vn 0.6106 0.3986 -0.6843
vn 0.3921 -0.5785 -0.7152
vn -0.9166 0.0707 -0.3934
vn -0.4827 0.0733 -0.8727
vn 0.0487 0.4772 -0.8774
vn 0.1920 -0.4205 -0.8868
vn -0.2647 0.7445 -0.6130
vn 0.5001 -0.4357 -0.7483
vn -0.2795 -0.6158 -0.7367
vn -0.8857 0.2911 -0.3617
vn 0.2808 -0.3796 0.8815
vn 0.4992 0.3184 0.8059
vn -0.0783 0.4597 0.8846
vn -0.0770 -0.6084 0.7899
vn -0.0734 0.4597 0.8850
vn -0.0798 -0.6084 0.7896
vn -0.6582 0.4738 0.5851
vn -0.6597 -0.4260 0.6191
vn -0.2134 0.6810 0.7005
vn -0.3146 -0.7155 0.6238
vn 0.2993 0.5393 0.7872
vn 0.1863 -0.7740 0.6051
vn 0.4695 0.2762 0.8386
vn 0.2633 -0.6901 0.6741
vn -0.9740 0.0210 0.2255
vn -0.6350 -0.0587 0.7703
vn -0.1194 0.3316 0.9358
vn 0.0329 -0.5583 0.8290
vn -0.3831 0.6419 0.6643
vn 0.3614 -0.5560 0.7485
vn -0.4003 -0.7204 0.5663
vn -0.9410 0.2431 0.2353
vn 0.2615 -0.9637 -0.0532
vn 0.9958 -0.0040 0.0920
vn 0.2700 0.9575 0.1019
vn -0.0826 -0.9927 -0.0874
vn -0.0766 0.9944 0.0728
vn -0.6535 -0.7472 -0.1206
vn -0.6273 0.7787 0.0044
vn 0.0170 -0.9968 -0.0785
vn 0.1523 0.9839 0.0932
vn 0.7010 0.7028 0.1214
vn -0.9506 -0.2898 -0.1114
vn -0.7833 -0.6096 -0.1216
vn -0.6985 0.7156 -0.0073
vn -0.6943 0.7197 -0.0066
vn 0.4540 -0.8905 -0.0294
vn -0.7566 -0.6425 -0.1217
vn -0.8627 0.5042 -0.0395
vn 0.7597 -0.6500 0.0182
vn 0.6317 -0.3313 -0.7008
vn 0.4530 0.3736 -0.8095
vn 0.0746 -0.4691 -0.8800
vn -0.5319 0.4718 -0.7032
vn -0.5431 -0.4349 -0.7183
vn -0.1233 0.7344 -0.6675
vn -0.1658 -0.6570 -0.7354
vn 0.3975 0.7299 -0.5561
vn 0.3523 -0.5860 -0.7297
vn 0.6892 0.5200 -0.5045
vn 0.4024 -0.4523 -0.7959
vn -0.9532 0.0297 -0.3008
vn -0.4550 0.0902 -0.8859
vn 0.0612 0.4858 -0.8719
vn -0.1220 -0.5917 -0.7969
vn -0.1836 0.6702 -0.7191
vn 0.4900 -0.3330 -0.8056
vn -0.8243 0.2097 -0.5258
vn 0.4979 -0.4473 0.7430
vn 0.2920 0.2341 0.9273
vn -0.0805 -0.6035 0.7933
vn -0.6582 0.3623 0.6599
vn -0.6587 -0.5351 0.5290
vn -0.2539 0.6212 0.7414
vn -0.2877 -0.7627 0.5793
vn 0.2785 0.6268 0.7277
vn 0.2216 -0.6992 0.6797
vn 0.5778 0.4234 0.6978
vn 0.2568 -0.5784 0.7742
vn -0.9925 -0.0043 0.1225
vn -0.6105 -0.0445 0.7908
vn -0.1063 0.3407 0.9342
vn -0.2568 -0.7085 0.6574
vn -0.3216 0.5505 0.7704
vn 0.3395 -0.4635 0.8185
vn -0.9095 0.1359 0.3929
s 0
usemtl Material.001
f 75//91 56//91 55//91
f 85//92 141//92 81//92
f 74//93 144//93 82//93
f 89//94 145//94 85//94
f 82//95 147//95 86//95
f 91//96 156//96 151//96
f 92//97 149//97 153//97
f 97//98 162//98 157//98
f 98//99 155//99 159//99
f 103//100 167//100 163//100
f 104//101 161//101 166//101
f 110//102 167//102 107//102
f 104//103 170//103 108//103
f 120//104 183//104 122//104
f 115//105 186//105 175//105
f 108//106 187//106 127//106
f 131//107 172//107 112//107
f 130//108 179//108 190//108
f 133//109 185//109 193//109
f 65//110 135//110 64//110
f 66//110 143//110 65//110
f 142//110 65//110 64//110
f 66//110 154//110 148//110
f 146//110 66//110 65//110
f 67//110 160//110 154//110
f 158//110 66//110 152//110
f 69//110 160//110 68//110
f 164//110 67//110 158//110
f 70//110 165//110 69//110
f 164//110 69//110 68//110
f 72//110 188//110 169//110
f 168//110 70//110 69//110
f 184//110 72//110 194//110
f 191//110 178//110 71//110
f 194//110 70//110 173//110
f 178//110 188//110 71//110
f 181//110 71//110 184//110
f 55//91 77//91 75//91
f 80//91 56//91 84//91
f 83//91 57//91 56//91
f 79//111 138//111 78//111
f 57//91 94//91 58//91
f 84//91 57//91 90//91
f 58//91 100//91 59//91
f 57//91 96//91 90//91
f 100//91 60//91 59//91
f 58//91 102//91 96//91
f 105//91 61//91 60//91
f 102//91 60//91 106//91
f 109//91 62//91 63//91
f 106//91 61//91 111//91
f 126//91 118//91 62//91
f 62//91 121//91 124//91
f 113//112 177//112 116//112
f 129//91 62//91 118//91
f 63//91 124//91 132//91
f 61//91 132//91 111//91
f 128//113 180//113 119//113
f 139//110 64//110 135//110
f 73//114 74//114 75//114
f 76//115 77//115 78//115
f 79//116 80//116 81//116
f 86//117 87//117 88//117
f 89//118 90//118 91//118
f 92//119 93//119 94//119
f 95//120 96//120 97//120
f 98//121 99//121 100//121
f 101//122 102//122 103//122
f 110//123 111//123 112//123
f 113//124 114//124 115//124
f 116//125 117//125 118//125
f 119//126 120//126 121//126
f 122//127 123//127 124//127
f 125//128 126//128 127//128
f 128//129 129//129 130//129
f 131//130 132//130 133//130
f 134//131 135//131 136//131
f 137//132 138//132 139//132
f 140//133 141//133 142//133
f 147//134 148//134 149//134
f 150//135 151//135 152//135
f 153//136 154//136 155//136
f 156//137 157//137 158//137
f 159//138 160//138 161//138
f 162//139 163//139 164//139
f 171//140 172//140 173//140
f 174//141 175//141 176//141
f 177//142 178//142 179//142
f 180//143 181//143 182//143
f 183//144 184//144 185//144
f 186//145 187//145 188//145
f 189//146 190//146 191//146
f 192//147 193//147 194//147
f 73//148 77//148 76//148
f 79//149 77//149 80//149
f 81//150 84//150 85//150
f 74//151 83//151 75//151
f 89//152 84//152 90//152
f 86//153 83//153 82//153
f 95//154 90//154 96//154
f 92//155 88//155 87//155
f 101//156 96//156 102//156
f 98//157 94//157 93//157
f 103//158 106//158 107//158
f 99//159 105//159 100//159
f 107//160 111//160 110//160
f 104//161 109//161 105//161
f 116//162 114//162 113//162
f 119//163 129//163 128//163
f 131//164 111//164 132//164
f 125//165 114//165 126//165
f 122//166 121//166 120//166
f 108//167 126//167 109//167
f 117//168 129//168 118//168
f 123//169 132//169 124//169
f 139//170 134//170 137//170
f 139//171 140//171 142//171
f 146//172 141//172 145//172
f 143//173 136//173 135//173
f 146//174 150//174 152//174
f 143//175 147//175 144//175
f 152//176 156//176 158//176
f 148//177 153//177 149//177
f 158//178 162//178 164//178
f 154//179 159//179 155//179
f 168//180 163//180 167//180
f 165//181 161//181 160//181
f 173//182 167//182 171//182
f 169//183 166//183 165//183
f 176//184 177//184 174//184
f 191//185 180//185 189//185
f 173//186 192//186 194//186
f 176//187 186//187 188//187
f 181//188 183//188 182//188
f 188//189 170//189 169//189
f 191//190 179//190 178//190
f 194//191 185//191 184//191
f 134//192 74//192 73//192
f 78//193 137//193 76//193
f 81//194 140//194 79//194
f 147//195 87//195 86//195
f 151//196 89//196 91//196
f 153//197 93//197 92//197
f 157//198 95//198 97//198
f 159//199 99//199 98//199
f 163//200 101//200 103//200
f 172//201 110//201 112//201
f 175//202 113//202 115//202
f 177//203 117//203 116//203
f 119//204 182//204 120//204
f 183//205 123//205 122//205
f 187//206 125//206 127//206
f 190//207 128//207 130//207
f 193//208 131//208 133//208
f 73//209 137//209 134//209
f 75//91 83//91 56//91
f 85//92 145//92 141//92
f 74//93 136//93 144//93
f 89//94 150//94 145//94
f 82//95 144//95 147//95
f 91//96 95//96 156//96
f 92//97 87//97 149//97
f 97//98 101//98 162//98
f 98//99 93//99 155//99
f 103//100 107//100 167//100
f 104//101 99//101 161//101
f 110//102 171//102 167//102
f 104//103 166//103 170//103
f 120//104 182//104 183//104
f 115//105 125//105 186//105
f 108//106 170//106 187//106
f 131//107 192//107 172//107
f 130//108 117//108 179//108
f 133//109 123//109 185//109
f 65//110 143//110 135//110
f 66//110 148//110 143//110
f 142//110 146//110 65//110
f 66//110 67//110 154//110
f 146//110 152//110 66//110
f 67//110 68//110 160//110
f 158//110 67//110 66//110
f 69//110 165//110 160//110
f 164//110 68//110 67//110
f 70//110 169//110 165//110
f 164//110 168//110 69//110
f 169//110 70//110 72//110
f 72//110 71//110 188//110
f 168//110 173//110 70//110
f 184//110 71//110 72//110
f 194//110 72//110 70//110
f 178//110 176//110 188//110
f 181//110 191//110 71//110
f 55//91 80//91 77//91
f 80//91 55//91 56//91
f 83//91 88//91 57//91
f 79//111 140//111 138//111
f 57//91 88//91 94//91
f 84//91 56//91 57//91
f 58//91 94//91 100//91
f 57//91 58//91 96//91
f 100//91 105//91 60//91
f 58//91 59//91 102//91
f 105//91 109//91 61//91
f 102//91 59//91 60//91
f 63//91 61//91 109//91
f 109//91 126//91 62//91
f 106//91 60//91 61//91
f 126//91 114//91 118//91
f 62//91 129//91 121//91
f 113//112 174//112 177//112
f 63//91 62//91 124//91
f 61//91 63//91 132//91
f 128//113 189//113 180//113
f 139//110 142//110 64//110
f 73//210 75//210 77//210
f 79//211 78//211 77//211
f 81//150 80//150 84//150
f 74//151 82//151 83//151
f 89//152 85//152 84//152
f 86//212 88//212 83//212
f 95//213 91//213 90//213
f 92//214 94//214 88//214
f 101//215 97//215 96//215
f 98//216 100//216 94//216
f 103//217 102//217 106//217
f 99//218 104//218 105//218
f 107//219 106//219 111//219
f 104//220 108//220 109//220
f 116//221 118//221 114//221
f 119//222 121//222 129//222
f 131//223 112//223 111//223
f 125//224 115//224 114//224
f 122//225 124//225 121//225
f 108//226 127//226 126//226
f 117//168 130//168 129//168
f 123//227 133//227 132//227
f 139//228 135//228 134//228
f 139//229 138//229 140//229
f 146//172 142//172 141//172
f 143//173 144//173 136//173
f 146//174 145//174 150//174
f 143//230 148//230 147//230
f 152//231 151//231 156//231
f 148//232 154//232 153//232
f 158//233 157//233 162//233
f 154//234 160//234 159//234
f 168//235 164//235 163//235
f 165//236 166//236 161//236
f 173//237 168//237 167//237
f 169//238 170//238 166//238
f 176//239 178//239 177//239
f 191//240 181//240 180//240
f 173//241 172//241 192//241
f 176//242 175//242 186//242
f 181//243 184//243 183//243
f 188//244 187//244 170//244
f 191//190 190//190 179//190
f 194//245 193//245 185//245
f 134//192 136//192 74//192
f 78//193 138//193 137//193
f 81//194 141//194 140//194
f 147//195 149//195 87//195
f 151//196 150//196 89//196
f 153//197 155//197 93//197
f 157//198 156//198 95//198
f 159//199 161//199 99//199
f 163//200 162//200 101//200
f 172//201 171//201 110//201
f 175//202 174//202 113//202
f 177//203 179//203 117//203
f 119//204 180//204 182//204
f 183//205 185//205 123//205
f 187//206 186//206 125//206
f 190//207 189//207 128//207
f 193//208 192//208 131//208
f 73//209 76//209 137//209
