# Blender 4.1.1
# www.blender.org
mtllib skelet ruchka 3.mtl
o Cylinder
v -3.248969 0.034050 -0.565336
v -2.397614 0.021950 -0.502503
v -3.258640 -0.185958 -0.509201
v -2.407285 -0.198061 -0.446368
v -3.278630 -0.310553 -0.349528
v -2.427275 -0.322654 -0.286693
v -3.296748 -0.277375 -0.230109
v -2.441299 -0.290016 -0.158821
v -3.311708 -0.112220 -0.031907
v -2.460354 -0.124323 0.030926
v -3.309318 0.117901 -0.022579
v -2.457963 0.105801 0.040256
v -3.290694 0.305317 -0.206487
v -2.435249 0.292676 -0.135199
v -3.271749 0.352061 -0.322666
v -2.420394 0.339959 -0.259831
v -3.254147 0.246532 -0.491668
v -2.402792 0.234430 -0.428835
v -1.291590 -0.213919 -0.364025
v -1.281922 0.006089 -0.420158
v -1.311580 -0.338513 -0.204353
v -1.342339 -0.305635 -0.077759
v -1.344659 -0.140184 0.113269
v -1.342268 0.089940 0.122597
v -1.336286 0.277059 -0.054138
v -1.304699 0.324101 -0.177489
v -1.287097 0.218571 -0.346492
v -4.623267 0.053587 -0.666766
v -4.632938 -0.166424 -0.610628
v -4.652928 -0.291019 -0.450956
v -4.690779 -0.258905 -0.310271
v -4.547716 -0.098026 -0.066068
v -4.545325 0.132098 -0.056740
v -4.684726 0.323789 -0.286649
v -4.646047 0.371595 -0.424094
v -4.628445 0.266065 -0.593097
v -5.274668 -0.220367 0.295181
v -5.270038 0.225500 0.313254
v -5.545527 0.594168 -0.084979
v -5.547021 0.689287 -0.380732
v -5.436828 0.479095 -0.623989
v -5.087950 0.477233 -0.650621
v -5.105429 0.685545 -0.390995
v -5.180373 0.592917 -0.124693
v -4.910282 0.221510 0.320757
v -4.914915 -0.224354 0.302682
v -5.192098 -0.536056 -0.170464
v -5.118760 -0.598278 -0.443042
v -5.096654 -0.360723 -0.684591
v -5.061296 0.069395 -0.861172
v -5.557251 -0.534806 -0.130748
v -5.560355 -0.594536 -0.432777
v -5.445532 -0.358861 -0.657959
v -5.338517 0.069395 -0.814966
vn 0.0677 -0.2495 -0.9660
vn 0.0678 -0.2495 -0.9660
vn 0.0340 -0.7900 -0.6122
vn -0.0344 -0.9646 0.2615
vn -0.0475 -0.8826 0.4676
vn -0.0415 -0.8870 0.4599
vn -0.0448 -0.7677 0.6393
vn -0.0741 -0.0396 0.9965
vn -0.0511 -0.0399 0.9979
vn -0.0297 0.7000 0.7135
vn -0.0300 0.8277 0.5603
vn -0.0241 0.8326 0.5533
vn -0.0155 0.9289 0.3700
vn -0.0318 -0.9693 0.2439
vn -0.0469 -0.8842 0.4648
vn 0.0508 0.8495 -0.5251
vn 0.0508 0.8495 -0.5252
vn 0.0742 0.3283 -0.9417
vn 0.2417 0.5955 -0.7661
vn 0.9916 -0.0212 0.1277
vn 0.9936 -0.0102 0.1126
vn 0.9903 -0.0172 0.1380
vn -0.0128 0.9354 0.3533
vn -0.0294 0.8295 0.5577
vn -0.0128 0.9354 0.3535
vn -0.0438 0.6867 0.7257
vn -0.0589 -0.7549 0.6532
vn -0.0589 -0.7549 0.6531
vn 0.0678 -0.2494 -0.9660
vn 0.2268 -0.5267 -0.8192
vn 0.3265 -0.3428 -0.8809
vn 0.2339 -0.2500 -0.9396
vn 0.2658 0.8168 -0.5121
vn -0.0068 0.9440 0.3299
vn -0.0161 0.8762 0.4817
vn -0.0254 0.7528 0.6577
vn -0.0281 -0.0402 0.9988
vn -0.0415 -0.8163 0.5761
vn -0.0342 -0.9237 0.3816
vn -0.0259 -0.9754 0.2191
vn 0.5231 -0.8049 0.2800
vn 0.5198 -0.8210 0.2363
vn 0.5230 -0.8058 0.2779
vn 0.5338 0.7606 0.3697
vn 0.5350 0.7398 0.4079
vn 0.5337 0.7616 0.3677
vn 0.5252 -0.7880 0.3212
vn 0.5314 0.7807 0.3288
vn 0.3380 0.4105 -0.8469
vn 0.1547 0.6280 -0.7627
vn 0.2461 -0.7641 -0.5964
vn 0.1404 -0.5565 -0.8189
vn 0.7142 -0.0358 0.6990
vn 0.1703 0.7664 -0.6194
vn -0.0441 0.6295 -0.7757
vn -0.0088 0.7546 -0.6561
vn -0.1234 -0.3508 -0.9283
vn -0.1531 -0.3645 -0.9185
vn 0.0219 -0.9182 0.3956
vn 0.0011 -0.8276 0.5613
vn 0.0382 -0.9242 0.3801
vn 0.0391 0.8682 0.4946
vn 0.0266 0.9475 0.3186
vn 0.0552 0.8754 0.4803
vn 0.0077 -0.9783 0.2072
vn -0.0031 -0.9751 0.2218
vn 0.0166 0.7643 0.6446
vn -0.0049 0.7666 0.6421
vn -0.1173 0.4324 -0.8940
vn 0.1529 -0.7032 -0.6944
vn -0.0549 -0.5529 -0.8314
vn -0.0213 -0.0403 0.9990
vn -0.9918 -0.1215 -0.0404
vn -0.9892 0.1447 -0.0246
vn -0.9400 0.0664 0.3348
vn -0.0318 -0.9693 0.2440
vn 0.2419 0.3231 -0.9149
vn 0.9775 0.0451 0.2063
vn 0.9935 -0.0149 0.1128
vn 0.9896 0.0231 0.1419
vn 0.8934 0.2931 0.3405
vn 0.9997 -0.0113 0.0219
vn -0.0438 0.6867 0.7256
vn 0.5350 0.7399 0.4079
vn -0.0208 -0.8292 0.5585
vn 0.0157 0.9430 0.3324
vn -0.1471 0.4461 -0.8828
vn -0.0227 -0.6848 -0.7283
vn -0.9422 -0.0737 0.3268
vn -0.6426 -0.7304 -0.2317
vn -0.9239 -0.0446 -0.3800
vn -0.8927 0.0275 -0.4498
vn -0.9234 0.0943 -0.3722
vn -0.6308 0.7624 -0.1443
s 1
usemtl Material.002
f 2//1 3//2 1//2
f 4//3 5//3 3//3
f 5//4 8//5 7//6
f 8//5 9//7 7//6
f 10//8 11//9 9//9
f 11//10 14//11 13//12
f 14//11 15//13 13//12
f 6//14 22//15 8//5
f 16//16 17//17 15//17
f 18//18 1//18 17//18
f 1//18 36//19 17//18
f 20//20 24//21 22//22
f 4//3 21//3 6//3
f 18//18 20//18 2//18
f 16//16 27//16 18//16
f 16//23 25//24 26//25
f 12//26 25//24 14//11
f 10//8 24//8 12//8
f 10//27 22//15 23//28
f 2//1 19//29 4//1
f 29//30 50//31 28//32
f 17//17 35//33 15//17
f 13//12 35//34 34//35
f 13//12 33//36 11//10
f 11//9 32//37 9//9
f 7//6 32//38 31//39
f 3//2 28//32 1//2
f 7//6 30//40 5//4
f 5//3 29//30 3//3
f 31//41 46//42 47//43
f 34//44 43//45 44//46
f 31//41 48//47 30//47
f 34//44 45//48 33//48
f 36//19 50//49 42//50
f 30//51 49//52 29//30
f 33//53 46//53 32//53
f 35//33 42//50 43//54
f 43//54 41//55 40//56
f 49//52 54//57 50//58
f 47//59 37//60 51//61
f 44//62 40//63 39//64
f 47//59 52//65 48//66
f 44//62 38//67 45//68
f 42//50 54//69 41//55
f 48//70 53//71 49//52
f 45//72 37//72 46//72
f 40//73 52//74 37//75
f 2//1 4//1 3//2
f 4//3 6//3 5//3
f 5//4 6//14 8//5
f 8//5 10//27 9//7
f 10//8 12//8 11//9
f 11//10 12//26 14//11
f 14//11 16//23 15//13
f 6//14 21//76 22//15
f 16//16 18//16 17//17
f 18//18 2//18 1//18
f 1//18 28//77 36//19
f 21//78 19//79 20//20
f 20//20 27//79 26//80
f 26//80 25//81 24//21
f 24//21 23//82 22//22
f 22//22 21//78 20//20
f 20//20 26//80 24//21
f 4//3 19//3 21//3
f 18//18 27//18 20//18
f 16//16 26//16 27//16
f 16//23 14//11 25//24
f 12//26 24//83 25//24
f 10//8 23//8 24//8
f 10//27 8//5 22//15
f 2//1 20//29 19//29
f 29//30 49//52 50//31
f 17//17 36//19 35//33
f 13//12 15//13 35//34
f 13//12 34//35 33//36
f 11//9 33//37 32//37
f 7//6 9//7 32//38
f 3//2 29//30 28//32
f 7//6 31//39 30//40
f 5//3 30//51 29//30
f 31//41 32//42 46//42
f 34//44 35//84 43//45
f 31//41 47//43 48//47
f 34//44 44//46 45//48
f 36//19 28//77 50//49
f 30//51 48//70 49//52
f 33//53 45//53 46//53
f 35//33 36//19 42//50
f 43//54 42//50 41//55
f 49//52 53//71 54//57
f 47//59 46//85 37//60
f 44//62 43//86 40//63
f 47//59 51//61 52//65
f 44//62 39//64 38//67
f 42//50 50//87 54//69
f 48//70 52//88 53//71
f 45//72 38//72 37//72
f 38//89 39//90 40//73
f 40//73 41//91 54//92
f 54//92 53//93 52//74
f 52//74 51//94 37//75
f 37//75 38//89 40//73
f 40//73 54//92 52//74
o Plane
v 8.727321 -0.068406 0.345671
v 5.734750 -0.047928 0.123341
v 1.418714 0.020240 -0.194745
v 1.126074 0.013858 -0.217043
v 0.768723 0.041596 -0.241911
v 0.411258 0.068201 -0.266862
v -0.012435 0.095744 -0.296699
v -0.510231 -0.045683 -0.343317
v -0.200716 0.042252 -0.314333
v 8.664074 -0.121782 0.895859
v 5.671500 -0.101304 0.673529
v 1.355467 -0.033136 0.355443
v 1.062824 -0.039518 0.333144
v 0.705476 -0.011780 0.308277
v 0.348011 0.014825 0.283326
v -0.075683 0.042368 0.253487
v -0.573478 -0.099059 0.206871
v -0.263963 -0.011124 0.235857
v 8.862782 -0.919956 0.402473
v 8.143410 -1.105680 0.336348
v 8.712172 -0.908823 0.288639
v 9.427216 -0.274593 0.487591
v 9.303371 -0.066984 0.388827
v 9.425869 0.114234 0.513352
v 8.856840 0.792981 0.515965
v 8.706236 0.804117 0.402131
v 8.136124 0.996086 0.475600
v 5.704462 -1.088992 0.155151
v 5.719602 -0.888348 0.066309
v 5.713662 0.824592 0.179801
v 5.697176 1.012775 0.294400
v 2.089636 -1.046084 -0.112202
v 1.226439 -0.969857 -0.171656
v 1.306309 -0.832827 -0.259888
v 2.179609 1.068332 0.035161
v 1.397629 0.892762 -0.138288
v 1.330887 1.010583 -0.032121
v 1.081184 -0.743439 -0.167455
v 0.975921 -0.653420 -0.169335
v 1.064261 -0.541103 -0.258578
v 1.159746 0.770980 -0.060852
v 1.122094 0.581616 -0.179579
v 1.049775 0.684803 -0.074803
v 0.762709 -0.573284 -0.179943
v 0.642736 -0.574420 -0.188986
v 0.722330 -0.432306 -0.276899
v 0.846420 0.630939 -0.093587
v 0.792915 0.517066 -0.208479
v 0.729773 0.649376 -0.101079
v 0.390024 -0.683087 -0.215104
v 0.403490 -0.536050 -0.307633
v 0.475986 0.672893 -0.221804
v 0.478978 0.800279 -0.109789
v -0.057998 -0.960808 -0.267064
v -0.040031 -0.757300 -0.355504
v 0.084039 1.412793 -0.098570
v 0.002665 1.290499 -0.216105
v -0.056383 1.549489 -0.099974
v -0.673561 -1.150594 -0.325702
v -0.619868 -1.131590 -0.423742
v -0.632378 -1.279608 -0.331204
v -0.656966 -0.756872 -0.298274
v -0.814913 -0.559543 -0.296956
v -0.616313 -0.523028 -0.382997
v -1.529521 0.259695 -0.295881
v -1.322374 0.456966 -0.267275
v -1.314911 0.350312 -0.377127
v -0.619021 0.773736 -0.193630
v -0.387984 0.991155 -0.161898
v -0.421026 0.706002 -0.286653
v -0.475541 -1.325224 -0.322516
v -0.434888 -1.091378 -0.407240
v -0.360760 -1.268726 -0.310178
v -1.531580 -0.095314 -0.319647
v -1.333588 -0.163048 -0.412670
v -1.369368 -0.281278 -0.319893
v -0.229296 1.541518 -0.113431
v -0.255856 1.270293 -0.236771
v -0.304568 1.414779 -0.127485
v 8.822935 -0.953584 0.749093
v 8.648925 -0.962199 0.838827
v 8.103561 -1.139309 0.682965
v 9.387369 -0.308221 0.834209
v 9.386021 0.080606 0.859972
v 9.240122 -0.120360 0.939013
v 8.816996 0.759356 0.862582
v 8.096275 0.962458 0.822219
v 8.642988 0.750741 0.952319
v 5.656354 -0.941724 0.616497
v 5.664616 -1.122620 0.501768
v 5.657331 0.979147 0.641020
v 5.650415 0.771216 0.729989
v 2.049791 -1.079710 0.234415
v 1.243060 -0.886203 0.290300
v 1.186591 -1.003482 0.174961
v 2.139763 1.034707 0.381778
v 1.291038 0.976958 0.314496
v 1.334381 0.839386 0.411902
v 1.041336 -0.777067 0.179165
v 1.001014 -0.594479 0.291610
v 0.936073 -0.687046 0.177285
v 1.119900 0.737352 0.285767
v 1.009929 0.651175 0.271814
v 1.058847 0.528240 0.370609
v 0.722864 -0.606913 0.166675
v 0.659083 -0.485683 0.273289
v 0.602888 -0.608046 0.157632
v 0.806574 0.597310 0.253030
v 0.689928 0.615747 0.245538
v 0.729668 0.463690 0.341711
v 0.340243 -0.589426 0.242555
v 0.350179 -0.716715 0.131516
v 0.439133 0.766652 0.236829
v 0.412738 0.619517 0.328386
v -0.103278 -0.810676 0.194686
v -0.097840 -0.994436 0.079554
v 0.044196 1.379165 0.248048
v -0.096231 1.515861 0.246642
v -0.060583 1.237123 0.334085
v -0.713407 -1.184222 0.020916
v -0.672226 -1.313234 0.015414
v -0.683118 -1.184967 0.126448
v -0.696814 -0.790500 0.048346
v -0.679563 -0.576404 0.167191
v -0.854758 -0.593171 0.049664
v -1.569366 0.226070 0.050739
v -1.378161 0.296936 0.173061
v -1.362219 0.423338 0.079343
v -0.658866 0.740108 0.152989
v -0.484276 0.652626 0.263537
v -0.427830 0.957527 0.184720
v -0.515386 -1.358850 0.024104
v -0.400605 -1.302351 0.036442
v -0.498135 -1.144754 0.142950
v -1.571426 -0.128942 0.026971
v -1.409217 -0.314902 0.026727
v -1.396838 -0.216424 0.137518
v -0.269141 1.507890 0.233189
v -0.344413 1.381151 0.219133
v -0.319103 1.216917 0.313417
vn 0.0744 0.0662 -0.9950
vn -0.0004 0.9953 0.0965
vn 0.0004 -0.9953 -0.0965
vn 0.0085 0.9952 0.0975
vn -0.0046 -0.9953 -0.0971
vn -0.8111 0.5837 -0.0366
vn -0.8337 -0.5321 -0.1475
vn -0.2610 0.9632 0.0635
vn -0.3432 -0.9303 -0.1297
vn 0.5068 0.8505 0.1408
vn 0.3984 -0.9162 -0.0431
vn 0.8325 0.5341 0.1475
vn 0.5285 -0.8486 -0.0216
vn -0.4138 0.9094 0.0407
vn -0.2708 -0.9546 -0.1237
vn 0.7120 -0.7020 0.0137
vn -0.0529 0.9945 0.0904
vn -0.4398 -0.8876 -0.1367
vn -0.9755 0.1996 -0.0928
vn -0.0744 -0.0662 0.9950
vn 0.7581 0.6350 0.1488
vn -0.9928 0.0495 -0.1093
vn -0.9935 0.0133 -0.1129
vn 0.2625 -0.8630 -0.4317
vn 0.6737 0.0512 -0.7372
vn 0.2751 0.9216 -0.2738
vn 0.0096 -0.5453 -0.8382
vn 0.0128 0.6733 -0.7392
vn -0.3355 -0.4100 -0.8481
vn -0.3316 0.5476 -0.7682
vn 0.0679 -0.5521 -0.8310
vn 0.1521 0.6656 -0.7306
vn 0.4448 0.4489 -0.7750
vn -0.8300 -0.2435 -0.5018
vn -0.3413 -0.2672 -0.9012
vn -0.4925 0.6075 -0.6233
vn -0.2682 0.4121 -0.8708
vn 0.2772 -0.3695 -0.8869
vn -0.5005 -0.4356 -0.7481
vn -0.5235 0.3946 -0.7551
vn 0.2096 -0.9248 0.3176
vn 0.5323 -0.0541 0.8448
vn 0.2109 0.8457 0.4901
vn -0.1097 -0.6696 0.7346
vn -0.1032 0.5529 0.8268
vn -0.4707 -0.5357 0.7011
vn -0.4474 0.4453 0.7756
vn -0.0492 -0.6741 0.7370
vn 0.0314 0.5401 0.8410
vn 0.3028 0.3203 0.8976
vn -0.9164 -0.3036 0.2609
vn -0.4857 -0.3940 0.7803
vn -0.5878 0.5284 0.6127
vn -0.3995 0.2981 0.8669
vn 0.1483 -0.4891 0.8595
vn -0.6260 -0.5468 0.5560
vn -0.6434 0.3042 0.7025
vn 0.3734 -0.2074 -0.9042
vn 0.5708 0.4022 -0.7158
vn 0.0667 0.5232 -0.8496
vn 0.0649 -0.4081 -0.9106
vn 0.0708 0.5233 -0.8492
vn 0.0625 -0.4080 -0.9108
vn -0.4954 0.5300 -0.6883
vn -0.4572 -0.2776 -0.8450
vn -0.0827 0.7268 -0.6819
vn -0.1595 -0.5342 -0.8302
vn 0.3874 0.6036 -0.6968
vn 0.2707 -0.6115 -0.7435
vn 0.5439 0.3645 -0.7558
vn 0.3448 -0.5224 -0.7799
vn -0.8806 0.0698 -0.4687
vn -0.4065 0.0634 -0.9114
vn 0.0408 0.4103 -0.9110
vn 0.1604 -0.3608 -0.9188
vn -0.2384 0.6886 -0.6848
vn 0.4367 -0.3907 -0.8103
vn -0.2440 -0.5519 -0.7974
vn -0.8542 0.2883 -0.4327
vn 0.2352 -0.3264 0.9155
vn 0.4289 0.2809 0.8586
vn -0.0654 0.3944 0.9166
vn -0.0662 -0.5366 0.8413
vn -0.0613 0.3944 0.9169
vn -0.0686 -0.5366 0.8411
vn -0.6017 0.4448 0.6634
vn -0.5982 -0.3967 0.6963
vn -0.1879 0.6159 0.7651
vn -0.2829 -0.6605 0.6955
vn 0.2577 0.4767 0.8404
vn 0.1680 -0.7168 0.6767
vn 0.3993 0.2412 0.8845
vn 0.2336 -0.6288 0.7417
vn -0.9609 0.0213 0.2759
vn -0.5528 -0.0525 0.8316
vn -0.0983 0.2802 0.9549
vn 0.0279 -0.4869 0.8730
vn -0.3413 0.5872 0.7340
vn 0.3148 -0.4972 0.8085
vn -0.3653 -0.6751 0.6409
vn -0.9259 0.2456 0.2871
vn 0.2550 -0.9648 -0.0643
vn 0.9935 -0.0041 0.1138
vn 0.2628 0.9570 0.1230
vn -0.0803 -0.9912 -0.1054
vn -0.0745 0.9933 0.0878
vn -0.6414 -0.7531 -0.1468
vn -0.6172 0.7868 0.0054
vn 0.0166 -0.9954 -0.0947
vn 0.1481 0.9826 0.1123
vn 0.6891 0.7094 0.1480
vn -0.9453 -0.2959 -0.1374
vn -0.7725 -0.6173 -0.1487
vn -0.6890 0.7247 -0.0089
vn -0.6847 0.7288 -0.0080
vn 0.4444 -0.8951 -0.0357
vn -0.7453 -0.6499 -0.1487
vn -0.8564 0.5140 -0.0486
vn 0.7511 -0.6598 0.0223
vn -0.2610 0.9633 0.0634
vn 0.5286 -0.8486 -0.0216
vn 0.7581 0.6350 0.1487
vn 0.5606 -0.3019 -0.7711
vn 0.3884 0.3289 -0.8608
vn 0.0624 -0.4030 -0.9130
vn -0.4705 0.4285 -0.7714
vn -0.4785 -0.3935 -0.7849
vn -0.1094 0.6694 -0.7348
vn -0.1446 -0.5885 -0.7955
vn 0.3636 0.6855 -0.6308
vn 0.3084 -0.5267 -0.7921
vn 0.6423 0.4976 -0.5830
vn 0.3461 -0.3995 -0.8489
vn -0.9308 0.0298 -0.3643
vn -0.3815 0.0777 -0.9211
vn 0.0513 0.4183 -0.9068
vn -0.1045 -0.5208 -0.8472
vn -0.1608 0.6030 -0.7814
vn 0.4210 -0.2937 -0.8582
vn -0.7683 0.2007 -0.6078
vn 0.4354 -0.4016 0.8057
vn 0.2412 0.1985 0.9500
vn -0.0691 -0.5318 0.8441
vn -0.5908 0.3339 0.7345
vn -0.6100 -0.5088 0.6075
vn -0.2213 0.5559 0.8013
vn -0.2613 -0.7113 0.6525
vn 0.2437 0.5631 0.7896
vn 0.1963 -0.6358 0.7465
vn 0.5124 0.3856 0.7673
vn 0.2218 -0.5130 0.8292
vn -0.9885 -0.0044 0.1513
vn -0.5280 -0.0395 0.8483
vn -0.0875 0.2880 0.9536
vn -0.2288 -0.6482 0.7263
vn -0.2783 0.4891 0.8266
vn 0.2898 -0.4063 0.8666
vn -0.8736 0.1340 0.4679
vn 0.2628 0.9570 0.1231
vn 0.0165 -0.9954 -0.0947
vn 0.1481 0.9826 0.1124
s 0
usemtl Material.001
f 75//95 56//95 55//95
f 85//96 141//96 81//96
f 74//97 144//97 82//97
f 89//98 145//98 85//98
f 82//99 147//99 86//99
f 91//100 156//100 151//100
f 92//101 149//101 153//101
f 97//102 162//102 157//102
f 98//103 155//103 159//103
f 103//104 167//104 163//104
f 104//105 161//105 166//105
f 110//106 167//106 107//106
f 104//107 170//107 108//107
f 120//108 183//108 122//108
f 115//109 186//109 175//109
f 108//110 187//110 127//110
f 131//111 172//111 112//111
f 130//112 179//112 190//112
f 133//113 185//113 193//113
f 65//114 135//114 64//114
f 66//114 143//114 65//114
f 142//114 65//114 64//114
f 66//114 154//114 148//114
f 146//114 66//114 65//114
f 67//114 160//114 154//114
f 158//114 66//114 152//114
f 69//114 160//114 68//114
f 164//114 67//114 158//114
f 70//114 165//114 69//114
f 164//114 69//114 68//114
f 72//114 188//114 169//114
f 168//114 70//114 69//114
f 184//114 72//114 194//114
f 191//114 178//114 71//114
f 194//114 70//114 173//114
f 178//114 188//114 71//114
f 181//114 71//114 184//114
f 55//95 77//95 75//95
f 80//95 56//95 84//95
f 83//95 57//95 56//95
f 79//115 138//115 78//115
f 57//95 94//95 58//95
f 84//95 57//95 90//95
f 58//95 100//95 59//95
f 57//95 96//95 90//95
f 100//95 60//95 59//95
f 58//95 102//95 96//95
f 105//95 61//95 60//95
f 102//95 60//95 106//95
f 109//95 62//95 63//95
f 106//95 61//95 111//95
f 126//95 118//95 62//95
f 62//95 121//95 124//95
f 113//116 177//116 116//116
f 129//95 62//95 118//95
f 63//95 124//95 132//95
f 61//95 132//95 111//95
f 128//117 180//117 119//117
f 139//114 64//114 135//114
f 73//118 74//118 75//118
f 76//119 77//119 78//119
f 79//120 80//120 81//120
f 86//121 87//121 88//121
f 89//122 90//122 91//122
f 92//123 93//123 94//123
f 95//124 96//124 97//124
f 98//125 99//125 100//125
f 101//126 102//126 103//126
f 110//127 111//127 112//127
f 113//128 114//128 115//128
f 116//129 117//129 118//129
f 119//130 120//130 121//130
f 122//131 123//131 124//131
f 125//132 126//132 127//132
f 128//133 129//133 130//133
f 131//134 132//134 133//134
f 134//135 135//135 136//135
f 137//136 138//136 139//136
f 140//137 141//137 142//137
f 147//138 148//138 149//138
f 150//139 151//139 152//139
f 153//140 154//140 155//140
f 156//141 157//141 158//141
f 159//142 160//142 161//142
f 162//143 163//143 164//143
f 171//144 172//144 173//144
f 174//145 175//145 176//145
f 177//146 178//146 179//146
f 180//147 181//147 182//147
f 183//148 184//148 185//148
f 186//149 187//149 188//149
f 189//150 190//150 191//150
f 192//151 193//151 194//151
f 73//152 77//152 76//152
f 79//153 77//153 80//153
f 81//154 84//154 85//154
f 74//155 83//155 75//155
f 89//156 84//156 90//156
f 86//157 83//157 82//157
f 95//158 90//158 96//158
f 92//159 88//159 87//159
f 101//160 96//160 102//160
f 98//161 94//161 93//161
f 103//162 106//162 107//162
f 99//163 105//163 100//163
f 107//164 111//164 110//164
f 104//165 109//165 105//165
f 116//166 114//166 113//166
f 119//167 129//167 128//167
f 131//168 111//168 132//168
f 125//169 114//169 126//169
f 122//170 121//170 120//170
f 108//171 126//171 109//171
f 117//172 129//172 118//172
f 123//173 132//173 124//173
f 139//174 134//174 137//174
f 139//175 140//175 142//175
f 146//176 141//176 145//176
f 143//177 136//177 135//177
f 146//178 150//178 152//178
f 143//179 147//179 144//179
f 152//180 156//180 158//180
f 148//181 153//181 149//181
f 158//182 162//182 164//182
f 154//183 159//183 155//183
f 168//184 163//184 167//184
f 165//185 161//185 160//185
f 173//186 167//186 171//186
f 169//187 166//187 165//187
f 176//188 177//188 174//188
f 191//189 180//189 189//189
f 173//190 192//190 194//190
f 176//191 186//191 188//191
f 181//192 183//192 182//192
f 188//193 170//193 169//193
f 191//194 179//194 178//194
f 194//195 185//195 184//195
f 134//196 74//196 73//196
f 78//197 137//197 76//197
f 81//198 140//198 79//198
f 147//199 87//199 86//199
f 151//200 89//200 91//200
f 153//201 93//201 92//201
f 157//202 95//202 97//202
f 159//203 99//203 98//203
f 163//204 101//204 103//204
f 172//205 110//205 112//205
f 175//206 113//206 115//206
f 177//207 117//207 116//207
f 119//208 182//208 120//208
f 183//209 123//209 122//209
f 187//210 125//210 127//210
f 190//211 128//211 130//211
f 193//212 131//212 133//212
f 73//213 137//213 134//213
f 75//95 83//95 56//95
f 85//96 145//96 141//96
f 74//97 136//97 144//97
f 89//98 150//98 145//98
f 82//99 144//99 147//99
f 91//100 95//100 156//100
f 92//101 87//101 149//101
f 97//214 101//214 162//214
f 98//103 93//103 155//103
f 103//104 107//104 167//104
f 104//105 99//105 161//105
f 110//106 171//106 167//106
f 104//215 166//215 170//215
f 120//108 182//108 183//108
f 115//109 125//109 186//109
f 108//110 170//110 187//110
f 131//111 192//111 172//111
f 130//112 117//112 179//112
f 133//113 123//113 185//113
f 65//114 143//114 135//114
f 66//114 148//114 143//114
f 142//114 146//114 65//114
f 66//114 67//114 154//114
f 146//114 152//114 66//114
f 67//114 68//114 160//114
f 158//114 67//114 66//114
f 69//114 165//114 160//114
f 164//114 68//114 67//114
f 70//114 169//114 165//114
f 164//114 168//114 69//114
f 169//114 70//114 72//114
f 72//114 71//114 188//114
f 168//114 173//114 70//114
f 184//114 71//114 72//114
f 194//114 72//114 70//114
f 178//114 176//114 188//114
f 181//114 191//114 71//114
f 55//95 80//95 77//95
f 80//95 55//95 56//95
f 83//95 88//95 57//95
f 79//216 140//216 138//216
f 57//95 88//95 94//95
f 84//95 56//95 57//95
f 58//95 94//95 100//95
f 57//95 58//95 96//95
f 100//95 105//95 60//95
f 58//95 59//95 102//95
f 105//95 109//95 61//95
f 102//95 59//95 60//95
f 63//95 61//95 109//95
f 109//95 126//95 62//95
f 106//95 60//95 61//95
f 126//95 114//95 118//95
f 62//95 129//95 121//95
f 113//116 174//116 177//116
f 63//95 62//95 124//95
f 61//95 63//95 132//95
f 128//117 189//117 180//117
f 139//114 142//114 64//114
f 73//217 75//217 77//217
f 79//218 78//218 77//218
f 81//154 80//154 84//154
f 74//155 82//155 83//155
f 89//156 85//156 84//156
f 86//219 88//219 83//219
f 95//220 91//220 90//220
f 92//221 94//221 88//221
f 101//222 97//222 96//222
f 98//223 100//223 94//223
f 103//224 102//224 106//224
f 99//225 104//225 105//225
f 107//226 106//226 111//226
f 104//227 108//227 109//227
f 116//228 118//228 114//228
f 119//229 121//229 129//229
f 131//230 112//230 111//230
f 125//231 115//231 114//231
f 122//232 124//232 121//232
f 108//233 127//233 126//233
f 117//172 130//172 129//172
f 123//234 133//234 132//234
f 139//235 135//235 134//235
f 139//236 138//236 140//236
f 146//176 142//176 141//176
f 143//177 144//177 136//177
f 146//178 145//178 150//178
f 143//237 148//237 147//237
f 152//238 151//238 156//238
f 148//239 154//239 153//239
f 158//240 157//240 162//240
f 154//241 160//241 159//241
f 168//242 164//242 163//242
f 165//243 166//243 161//243
f 173//244 168//244 167//244
f 169//245 170//245 166//245
f 176//246 178//246 177//246
f 191//247 181//247 180//247
f 173//248 172//248 192//248
f 176//249 175//249 186//249
f 181//250 184//250 183//250
f 188//251 187//251 170//251
f 191//194 190//194 179//194
f 194//252 193//252 185//252
f 134//196 136//196 74//196
f 78//197 138//197 137//197
f 81//253 141//253 140//253
f 147//199 149//199 87//199
f 151//200 150//200 89//200
f 153//201 155//201 93//201
f 157//202 156//202 95//202
f 159//254 161//254 99//254
f 163//255 162//255 101//255
f 172//205 171//205 110//205
f 175//206 174//206 113//206
f 177//207 179//207 117//207
f 119//208 180//208 182//208
f 183//209 185//209 123//209
f 187//210 186//210 125//210
f 190//211 189//211 128//211
f 193//212 192//212 131//212
f 73//213 76//213 137//213
